<svg xmlns="http://www.w3.org/2000/svg" xmlns:xlink="http://www.w3.org/1999/xlink" width="16" height="16" viewBox="0 0 16 16">
    <defs>
        <path id="prefix__a" d="M8 10c1.105 0 2-.896 2-2 0-.178-.03-.348-.074-.512l5.781-5.781c.391-.391.391-1.023 0-1.414s-1.023-.391-1.414 0l-2.61 2.61C10.666 2.365 9.449 2 8 2 2.388 2 .163 7.399.071 7.628c-.094.239-.094.505 0 .744.054.133.835 2.011 2.582 3.561l-2.36 2.36c-.391.391-.391 1.023 0 1.414.195.195.451.293.707.293.256 0 .512-.098.707-.293l5.781-5.781c.164.043.334.074.512.074M4 8c0-2.209 1.791-4 4-4 .742 0 1.432.208 2.025.561L8.512 6.074C8.348 6.031 8.179 6 8 6c-1.104 0-2 .896-2 2 0 .178.031.347.074.511l-1.513 1.514C4.209 9.431 4 8.741 4 8m10.145-3.144l-2.252 2.252c.064.288.106.585.106.893 0 2.209-1.79 4-4 4-.306 0-.603-.042-.89-.108l-1.683 1.68c.768.261 1.617.428 2.574.428 5.613 0 7.836-5.4 7.928-5.63.095-.239.095-.504 0-.743-.044-.11-.596-1.437-1.784-2.772"/>
    </defs>
    <g fill="none" fill-rule="evenodd">
        <use fill="#212B36" xlink:href="#prefix__a"/>
    </g>
</svg>
