<?xml version="1.0" encoding="UTF-8"?>
<svg width="56px" height="56px" viewBox="0 0 56 56" version="1.1" xmlns="http://www.w3.org/2000/svg" xmlns:xlink="http://www.w3.org/1999/xlink">
    <!-- Generator: Sketch 64 (93537) - https://sketch.com -->
    <title>Icon_Phone</title>
    <desc>Created with Sketch.</desc>
    <defs>
        <path d="M33.0010303,35.0000004 C28.1477183,35.0988126 24.3238361,33.7563633 21.6123378,31.0534987 C17.6735193,27.1279573 17.0848453,21.268091 17.0118857,18.9964072 L21.1865736,18.9964072 L21.8691956,22.4358722 L20.5519251,23.0936225 C20.1591426,23.2902489 19.9412633,23.7184354 20.0132235,24.1506142 C20.4000092,26.4652165 22.5298297,31.075457 27.8308938,31.9577806 C28.2586568,32.0246535 28.6904177,31.8130556 28.8873087,31.4227971 L29.55294,30.1053003 L33.0010303,30.7929937 L33.0010303,35.0000004 Z M34.1963683,28.9964072 L29.199136,27.9983036 C28.7553817,27.9084743 28.312627,28.127059 28.1107388,28.5282966 L27.4481058,29.8388066 C23.8880774,28.9155608 22.5808014,25.9062785 22.1600345,24.5229069 L23.4443232,23.8811262 C23.8471001,23.6805074 24.0659789,23.2353532 23.9780276,22.7941914 L22.9865767,17.8036734 C22.8946276,17.3365609 22.4848546,17.0002 22.0071192,17.0002 L16.0104403,17.0002 C15.4787348,17.0002 15.0399778,17.4154111 15.0119933,17.9454041 C14.9930038,18.3077157 14.6092164,26.8814257 20.1901255,32.4558343 C23.2134511,35.4750977 27.3751462,37.0002 32.577265,37.0002 C33.0609971,37.0002 33.5527248,36.9872247 34.0534475,36.961274 C34.5841536,36.9333271 34.9999233,36.4951596 34.9999233,35.9641685 L34.9999233,29.9755468 C34.9999233,29.4994514 34.6631098,29.0902289 34.1963683,28.9964072 L34.1963683,28.9964072 Z" id="path-1"></path>
    </defs>
    <g id="UI-DESIGNS" stroke="none" stroke-width="1" fill="none" fill-rule="evenodd">
        <g id="WM-(Contact-Us-V2.1)" transform="translate(-174.000000, -553.000000)">
            <g id="Phone" transform="translate(176.000000, 555.000000)">
                <g id="Icon_Phone">
                    <circle id="Oval" stroke="#090907" stroke-width="2" fill="#010101" cx="26" cy="26" r="27"></circle>
                    <circle id="Oval" stroke="#FBB03B" stroke-width="2" fill="#010101" cx="26" cy="26" r="23"></circle>
                    <mask id="mask-2" fill="white">
                        <use xlink:href="#path-1"></use>
                    </mask>
                    <use id="Icon" fill="#FBB03B" xlink:href="#path-1"></use>
                </g>
            </g>
        </g>
    </g>
</svg>