<svg xmlns="http://www.w3.org/2000/svg" xmlns:xlink="http://www.w3.org/1999/xlink" width="56" height="56" viewBox="0 0 56 56">
    <defs>
        <path id="prefix__a" d="M18.764 9.073C18.764 4.065 14.561 0 9.382 0 4.203 0 0 4.065 0 9.073 0 14.244 5.48 22.155 9.382 27c3.978-4.881 9.382-12.702 9.382-17.927zm-13.204.965c0-2.484 2.024-4.5 4.517-4.5 2.494 0 4.518 2.016 4.518 4.5s-2.024 4.5-4.518 4.5c-2.493 0-4.517-2.016-4.517-4.5z"/>
        <path id="prefix__b" d="M32.286 23c0-3.87-3.194-7-7.143-7C21.193 16 18 19.13 18 23c0 5.25 7.143 13 7.143 13s7.143-7.75 7.143-13z"/>
    </defs>
    <g fill="none" fill-rule="evenodd" transform="translate(2 2)">
        <g transform="translate(14.475 12.154)">
            <use fill="#090907" fill-rule="nonzero" xlink:href="#prefix__a"/>
        </g>
        <circle cx="26" cy="26" r="27" fill="#010101" stroke="#090907" stroke-width="2"/>
        <circle cx="26" cy="26" r="23" fill="#010101" stroke="#FBB03B" stroke-width="2"/>
        <mask id="prefix__c" fill="#fff">
            <use xlink:href="#prefix__b"/>
        </mask>
        <path stroke="#FBB03B" stroke-width="2" d="M25.143 15c-2.249 0-4.281.893-5.752 2.335C17.912 18.783 17 20.786 17 23c0 5.497 7.408 13.678 7.408 13.678s.266.294.735.774c.469-.48.735-.774.735-.774s7.408-8.18 7.408-13.678c0-2.214-.912-4.217-2.39-5.665C29.423 15.893 27.39 15 25.142 15z"/>
        <g fill="#FBB03B" fill-rule="nonzero" mask="url(#prefix__c)">
            <g>
                <path d="M10.173 2.566L10.825.75l2.175 7h-1.493c-.183 0-.343-.125-.405-.317l-.97-3.025c-.189-.586-.174-1.243.04-1.842M7.173 2.566L7.825.75l2.175 7H8.507c-.183 0-.343-.125-.405-.317l-.97-3.025c-.189-.586-.174-1.243.04-1.842M5.827 5.934L5.175 7.75 3 .75h1.493c.184 0 .343.125.405.317l.97 3.025c.189.586.174 1.243-.04 1.842M2.827 5.934L2.176 7.75 0 .75h1.493c.183 0 .343.125.405.317l.97 3.025c.189.586.174 1.243-.04 1.842" transform="translate(19 19.25)"/>
            </g>
        </g>
    </g>
</svg>
