<svg xmlns="http://www.w3.org/2000/svg" width="16" height="16" viewBox="0 0 16 16">
    <defs>
        <filter id="khpnr5rrha">
            <feColorMatrix in="SourceGraphic" values="0 0 0 0 0.094118 0 0 0 0 0.094118 0 0 0 0 0.094118 0 0 0 1.000000 0"/>
        </filter>
    </defs>
    <g fill="none" fill-rule="evenodd">
        <g filter="url(#khpnr5rrha)" transform="translate(-289 -15)">
            <g>
                <path fill="#637381" d="M9.131 8l5.035-5.034c.312-.313.312-.819 0-1.132-.313-.312-.819-.312-1.132 0L8 6.87 2.966 1.834c-.313-.312-.819-.312-1.132 0-.312.313-.312.819 0 1.132L6.87 8l-5.035 5.034c-.312.313-.312.819 0 1.132.156.156.361.234.566.234.205 0 .41-.078.566-.234L8 9.13l5.034 5.035c.156.156.361.234.566.234.205 0 .41-.078.566-.234.312-.313.312-.819 0-1.132L9.13 8z" transform="translate(289 15)"/>
            </g>
        </g>
    </g>
</svg>
