<svg xmlns="http://www.w3.org/2000/svg" xmlns:xlink="http://www.w3.org/1999/xlink" width="20" height="16" viewBox="0 0 20 16">
    <defs>
        <path id="prefix__a" d="M900.816 23c-.415-1.162-1.514-2-2.816-2-1.302 0-2.401.838-2.816 2H895v-4h6v4h-.184zM898 25c-.551 0-1-.449-1-1 0-.551.449-1 1-1 .551 0 1 .449 1 1 0 .551-.449 1-1 1zm-10 0c-.551 0-1-.449-1-1 0-.551.449-1 1-1 .551 0 1 .449 1 1 0 .551-.449 1-1 1zm-3-12h8v10h-2.184c-.415-1.162-1.514-2-2.816-2-1.302 0-2.401.838-2.816 2H885V13zm13.434 1l1.8 3H895v-3h3.434zm4.424 3.485l-3-5c-.181-.301-.507-.485-.858-.485h-4c0-.552-.448-1-1-1h-10c-.552 0-1 .448-1 1v12c0 .552.448 1 1 1h1.185c.414 1.162 1.513 2 2.815 2s2.401-.838 2.816-2h4.369c.414 1.162 1.513 2 2.815 2s2.401-.838 2.816-2H902c.552 0 1-.448 1-1v-6c0-.181-.049-.359-.142-.515z"/>
    </defs>
    <g fill="none" fill-rule="evenodd" transform="translate(-883 -11)">
        <use fill="#010101" xlink:href="#prefix__a"/>
    </g>
</svg>
