<?xml version="1.0" encoding="UTF-8"?>
<svg width="200px" height="200px" viewBox="0 0 20 20" version="1.1" xmlns="http://www.w3.org/2000/svg" xmlns:xlink="http://www.w3.org/1999/xlink">
    <title>Polaris-icon/Major/Mono/Email Newsletter</title>
    <g id="Page-1" stroke="none" stroke-width="1" fill="none" fill-rule="evenodd">
        <g id="Shape" fill="#fbb03b">
            <path d="M7,6 C6.448,6 6,5.553 6,5 C6,4.447 6.448,4 7,4 L13,4 C13.552,4 14,4.447 14,5 C14,5.553 13.552,6 13,6 L7,6 Z M12,8 C12.552,8 13,8.447 13,9 C13,9.553 12.552,10 12,10 L8,10 C7.448,10 7,9.553 7,9 C7,8.447 7.448,8 8,8 L12,8 Z M18,18 L18,12 L17.205,12 L10.394,14.919 C10.268,14.973 10.134,15 10,15 C9.866,15 9.732,14.973 9.606,14.919 L2.795,12 L2,12 L2,18 L18,18 Z M16,2 L4,2 L4,10.341 L10,12.912 L16,10.341 L16,2 Z M19,10 C19.552,10 20,10.447 20,11 L20,19 C20,19.553 19.552,20 19,20 L1,20 C0.448,20 0,19.553 0,19 L0,11 C0,10.447 0.448,10 1,10 L2,10 L2,1 C2,0.447 2.448,0 3,0 L17,0 C17.552,0 18,0.447 18,1 L18,10 L19,10 Z"></path>
        </g>
    </g>
</svg>