<svg xmlns="http://www.w3.org/2000/svg" xmlns:xlink="http://www.w3.org/1999/xlink" width="16" height="16" viewBox="0 0 16 16">
    <defs>
        <path id="prefix__a" d="M8 26c-4.411 0-8-3.589-8-8s3.589-8 8-8 8 3.589 8 8-3.589 8-8 8m0-14c-3.309 0-6 2.691-6 6s2.691 6 6 6 6-2.691 6-6-2.691-6-6-6m-1 9c-.256 0-.512-.098-.707-.293l-2-2c-.391-.391-.391-1.023 0-1.414s1.023-.391 1.414 0L7 18.586l3.293-3.293c.391-.391 1.023-.391 1.414 0s.391 1.023 0 1.414l-4 4C7.512 20.902 7.256 21 7 21"/>
    </defs>
    <g fill="none" fill-rule="evenodd" transform="translate(0 -10)">
        <use fill="#FBB03B" xlink:href="#prefix__a"/>
    </g>
</svg>
