<svg width="808" height="48" xmlns="http://www.w3.org/2000/svg">
    <g fill-rule="nonzero" fill="none">
        <path d="M786.327 12.456 791.317 0 808 48h-11.443a3.27 3.27 0 0 1-3.101-2.179l-7.447-20.74a17.778 17.778 0 0 1 .31-12.625M764.321 12.456l5-12.456L786 48h-11.45a3.28 3.28 0 0 1-3.104-2.179l-7.443-20.74a17.814 17.814 0 0 1 .318-12.625M755.68 35.544 750.683 48 734 0h11.45a3.263 3.263 0 0 1 3.102 2.179l7.44 20.74a17.778 17.778 0 0 1-.312 12.625M732.676 35.544 727.68 48 711 0h11.456a3.263 3.263 0 0 1 3.101 2.179l7.438 20.74a17.78 17.78 0 0 1-.319 12.625" fill="#FBB03C"/>
        <path fill="#010101" d="m0 48 717-.064L700.011.046V0H.053z"/>
    </g>
</svg>
