<svg width="808" height="48" xmlns="http://www.w3.org/2000/svg">
    <g fill-rule="nonzero" fill="none">
        <path d="M21.673 35.544 16.683 48 0 0h11.443a3.27 3.27 0 0 1 3.101 2.179l7.447 20.74a17.778 17.778 0 0 1-.31 12.625M43.679 35.544l-5 12.456L22 0h11.45a3.28 3.28 0 0 1 3.104 2.179l7.443 20.74a17.814 17.814 0 0 1-.318 12.625M52.32 12.456 57.317 0 74 48H62.55a3.263 3.263 0 0 1-3.102-2.179l-7.44-20.74a17.778 17.778 0 0 1 .312-12.625M75.324 12.456 80.32 0 97 48H85.544a3.263 3.263 0 0 1-3.101-2.179l-7.438-20.74a17.78 17.78 0 0 1 .319-12.625" fill="#FBB03C"/>
        <path fill="#010101" d="M808 0 91 .064l16.989 47.89V48h699.958z"/>
    </g>
</svg>
