<svg xmlns="http://www.w3.org/2000/svg" xmlns:xlink="http://www.w3.org/1999/xlink" width="20" height="20" viewBox="0 0 20 20">
    <defs>
        <path id="prefix__a" d="M7.845 6.667l5.244-5.244c.326-.326.326-.853 0-1.179-.326-.326-.852-.326-1.178 0L6.667 5.488 1.423.244C1.097-.082.57-.082.244.244c-.326.326-.326.853 0 1.179l5.244 5.244L.244 11.91c-.326.326-.326.852 0 1.178.163.163.376.244.59.244.213 0 .426-.081.589-.244l5.244-5.244 5.244 5.244c.162.163.376.244.59.244.212 0 .426-.081.588-.244.326-.326.326-.852 0-1.178L7.845 6.667z"/>
    </defs>
    <g fill="none" fill-rule="evenodd" transform="translate(3.333 3.333)">
        <use fill="#FFF" xlink:href="#prefix__a"/>
    </g>
</svg>
