<svg xmlns="http://www.w3.org/2000/svg" xmlns:xlink="http://www.w3.org/1999/xlink" width="16" height="12" viewBox="0 0 16 12">
    <defs>
        <path id="prefix__a" d="M15.928 5.628C15.836 5.399 13.611 0 8 0 2.389 0 .163 5.399.072 5.628c-.094.239-.094.505 0 .744C.162 6.601 2.388 12 8 12c5.611 0 7.836-5.399 7.928-5.628.095-.239.095-.505 0-.744M8 10c-2.208 0-4-1.791-4-4S5.79 2 8 2c2.21 0 4 1.791 4 4s-1.79 4-4 4m0-6c-1.103 0-2 .896-2 2s.897 2 2 2c1.106 0 2-.896 2-2s-.895-2-2-2"/>
    </defs>
    <g fill="none" fill-rule="evenodd">
        <use fill="#212B36" xlink:href="#prefix__a"/>
    </g>
</svg>
